<mxfile host="app.diagrams.net" modified="2023-11-10T01:23:57.543Z" agent="Mozilla/5.0 (Windows NT 10.0; Win64; x64) AppleWebKit/537.36 (KHTML, like Gecko) Chrome/116.0.0.0 Safari/537.36 OPR/102.0.0.0" etag="b8ntlzKAgjxiBpo2nQ-a" version="22.1.0" type="google">
  <diagram id="R2lEEEUBdFMjLlhIrx00" name="Page-1">
    <mxGraphModel grid="1" page="1" gridSize="10" guides="1" tooltips="1" connect="1" arrows="1" fold="1" pageScale="1" pageWidth="850" pageHeight="1100" math="0" shadow="0" extFonts="Permanent Marker^https://fonts.googleapis.com/css?family=Permanent+Marker">
      <root>
        <mxCell id="0" />
        <mxCell id="1" parent="0" />
        <mxCell id="Y300xw4K_KnehX-x9vTq-1" value="Cámara" style="rounded=0;whiteSpace=wrap;html=1;" vertex="1" parent="1">
          <mxGeometry x="216" y="200" width="120" height="60" as="geometry" />
        </mxCell>
        <mxCell id="Y300xw4K_KnehX-x9vTq-2" value="Descripción" style="ellipse;whiteSpace=wrap;html=1;" vertex="1" parent="1">
          <mxGeometry x="116" y="270" width="80" height="30" as="geometry" />
        </mxCell>
        <mxCell id="Y300xw4K_KnehX-x9vTq-3" value="Coordenadas" style="ellipse;whiteSpace=wrap;html=1;" vertex="1" parent="1">
          <mxGeometry x="116" y="160" width="80" height="30" as="geometry" />
        </mxCell>
        <mxCell id="Y300xw4K_KnehX-x9vTq-4" value="Modelo" style="ellipse;whiteSpace=wrap;html=1;" vertex="1" parent="1">
          <mxGeometry x="86" y="215" width="80" height="30" as="geometry" />
        </mxCell>
        <mxCell id="Y300xw4K_KnehX-x9vTq-5" value="IP" style="ellipse;whiteSpace=wrap;html=1;" vertex="1" parent="1">
          <mxGeometry x="206" y="290" width="80" height="30" as="geometry" />
        </mxCell>
        <mxCell id="Y300xw4K_KnehX-x9vTq-7" value="ID" style="ellipse;whiteSpace=wrap;html=1;" vertex="1" parent="1">
          <mxGeometry x="206" y="140" width="80" height="30" as="geometry" />
        </mxCell>
        <mxCell id="Y300xw4K_KnehX-x9vTq-8" value="Detección" style="rounded=0;whiteSpace=wrap;html=1;" vertex="1" parent="1">
          <mxGeometry x="499" y="200" width="120" height="60" as="geometry" />
        </mxCell>
        <mxCell id="Y300xw4K_KnehX-x9vTq-9" value="Velocidad" style="ellipse;whiteSpace=wrap;html=1;" vertex="1" parent="1">
          <mxGeometry x="644" y="270" width="80" height="30" as="geometry" />
        </mxCell>
        <mxCell id="Y300xw4K_KnehX-x9vTq-10" value="Date" style="ellipse;whiteSpace=wrap;html=1;" vertex="1" parent="1">
          <mxGeometry x="549" y="140" width="80" height="30" as="geometry" />
        </mxCell>
        <mxCell id="Y300xw4K_KnehX-x9vTq-11" value="Patente" style="ellipse;whiteSpace=wrap;html=1;" vertex="1" parent="1">
          <mxGeometry x="549" y="290" width="80" height="30" as="geometry" />
        </mxCell>
        <mxCell id="Y300xw4K_KnehX-x9vTq-12" value="ID" style="ellipse;whiteSpace=wrap;html=1;" vertex="1" parent="1">
          <mxGeometry x="684" y="215" width="80" height="30" as="geometry" />
        </mxCell>
        <mxCell id="Y300xw4K_KnehX-x9vTq-15" value="" style="endArrow=none;html=1;rounded=0;entryX=1;entryY=1;entryDx=0;entryDy=0;exitX=0;exitY=0.25;exitDx=0;exitDy=0;" edge="1" parent="1" source="Y300xw4K_KnehX-x9vTq-1" target="Y300xw4K_KnehX-x9vTq-3">
          <mxGeometry width="50" height="50" relative="1" as="geometry">
            <mxPoint x="286" y="360" as="sourcePoint" />
            <mxPoint x="336" y="310" as="targetPoint" />
          </mxGeometry>
        </mxCell>
        <mxCell id="Y300xw4K_KnehX-x9vTq-17" value="" style="endArrow=none;html=1;rounded=0;exitX=1;exitY=0;exitDx=0;exitDy=0;entryX=0;entryY=0.75;entryDx=0;entryDy=0;" edge="1" parent="1" source="Y300xw4K_KnehX-x9vTq-2" target="Y300xw4K_KnehX-x9vTq-1">
          <mxGeometry width="50" height="50" relative="1" as="geometry">
            <mxPoint x="436" y="320" as="sourcePoint" />
            <mxPoint x="486" y="270" as="targetPoint" />
          </mxGeometry>
        </mxCell>
        <mxCell id="Y300xw4K_KnehX-x9vTq-18" value="" style="endArrow=none;html=1;rounded=0;entryX=1;entryY=0.5;entryDx=0;entryDy=0;exitX=0;exitY=0.5;exitDx=0;exitDy=0;" edge="1" parent="1" source="Y300xw4K_KnehX-x9vTq-1" target="Y300xw4K_KnehX-x9vTq-4">
          <mxGeometry width="50" height="50" relative="1" as="geometry">
            <mxPoint x="446" y="330" as="sourcePoint" />
            <mxPoint x="496" y="280" as="targetPoint" />
          </mxGeometry>
        </mxCell>
        <mxCell id="Y300xw4K_KnehX-x9vTq-19" value="" style="endArrow=none;html=1;rounded=0;exitX=0.5;exitY=0;exitDx=0;exitDy=0;entryX=0.25;entryY=1;entryDx=0;entryDy=0;" edge="1" parent="1" source="Y300xw4K_KnehX-x9vTq-5" target="Y300xw4K_KnehX-x9vTq-1">
          <mxGeometry width="50" height="50" relative="1" as="geometry">
            <mxPoint x="456" y="340" as="sourcePoint" />
            <mxPoint x="506" y="290" as="targetPoint" />
          </mxGeometry>
        </mxCell>
        <mxCell id="Y300xw4K_KnehX-x9vTq-20" value="" style="endArrow=none;html=1;rounded=0;entryX=0.5;entryY=1;entryDx=0;entryDy=0;exitX=0.25;exitY=0;exitDx=0;exitDy=0;" edge="1" parent="1" source="Y300xw4K_KnehX-x9vTq-1" target="Y300xw4K_KnehX-x9vTq-7">
          <mxGeometry width="50" height="50" relative="1" as="geometry">
            <mxPoint x="466" y="350" as="sourcePoint" />
            <mxPoint x="516" y="300" as="targetPoint" />
          </mxGeometry>
        </mxCell>
        <mxCell id="Y300xw4K_KnehX-x9vTq-21" value="" style="endArrow=none;html=1;rounded=0;entryX=0.5;entryY=1;entryDx=0;entryDy=0;exitX=0.75;exitY=0;exitDx=0;exitDy=0;" edge="1" parent="1" source="Y300xw4K_KnehX-x9vTq-8" target="Y300xw4K_KnehX-x9vTq-10">
          <mxGeometry width="50" height="50" relative="1" as="geometry">
            <mxPoint x="574" y="360" as="sourcePoint" />
            <mxPoint x="624" y="310" as="targetPoint" />
          </mxGeometry>
        </mxCell>
        <mxCell id="Y300xw4K_KnehX-x9vTq-22" value="" style="endArrow=none;html=1;rounded=0;entryX=0.75;entryY=1;entryDx=0;entryDy=0;exitX=0.5;exitY=0;exitDx=0;exitDy=0;" edge="1" parent="1" source="Y300xw4K_KnehX-x9vTq-11" target="Y300xw4K_KnehX-x9vTq-8">
          <mxGeometry width="50" height="50" relative="1" as="geometry">
            <mxPoint x="584" y="370" as="sourcePoint" />
            <mxPoint x="634" y="320" as="targetPoint" />
          </mxGeometry>
        </mxCell>
        <mxCell id="Y300xw4K_KnehX-x9vTq-23" value="" style="endArrow=none;html=1;rounded=0;entryX=0;entryY=0.5;entryDx=0;entryDy=0;exitX=1;exitY=0.5;exitDx=0;exitDy=0;" edge="1" parent="1" source="Y300xw4K_KnehX-x9vTq-8" target="Y300xw4K_KnehX-x9vTq-12">
          <mxGeometry width="50" height="50" relative="1" as="geometry">
            <mxPoint x="594" y="380" as="sourcePoint" />
            <mxPoint x="644" y="330" as="targetPoint" />
          </mxGeometry>
        </mxCell>
        <mxCell id="Y300xw4K_KnehX-x9vTq-24" value="" style="endArrow=none;html=1;rounded=0;entryX=0;entryY=0;entryDx=0;entryDy=0;exitX=1;exitY=0.75;exitDx=0;exitDy=0;" edge="1" parent="1" source="Y300xw4K_KnehX-x9vTq-8" target="Y300xw4K_KnehX-x9vTq-9">
          <mxGeometry width="50" height="50" relative="1" as="geometry">
            <mxPoint x="604" y="390" as="sourcePoint" />
            <mxPoint x="654" y="340" as="targetPoint" />
          </mxGeometry>
        </mxCell>
        <mxCell id="Y300xw4K_KnehX-x9vTq-25" value="" style="endArrow=none;html=1;rounded=0;exitX=1;exitY=0.5;exitDx=0;exitDy=0;entryX=0;entryY=0.5;entryDx=0;entryDy=0;" edge="1" parent="1" source="Y300xw4K_KnehX-x9vTq-1" target="Y300xw4K_KnehX-x9vTq-8">
          <mxGeometry width="50" height="50" relative="1" as="geometry">
            <mxPoint x="557" y="400" as="sourcePoint" />
            <mxPoint x="607" y="350" as="targetPoint" />
          </mxGeometry>
        </mxCell>
        <mxCell id="Y300xw4K_KnehX-x9vTq-26" value="&lt;font style=&quot;font-size: 36px;&quot;&gt;DIAGRAMA DE ENTIENDAD - RELACIÓN&lt;/font&gt;" style="text;html=1;strokeColor=none;fillColor=none;align=center;verticalAlign=middle;whiteSpace=wrap;rounded=0;" vertex="1" parent="1">
          <mxGeometry x="60" width="740" height="130" as="geometry" />
        </mxCell>
        <mxCell id="ptpNMDShTz1XElcJ-byu-1" value="" style="endArrow=none;dashed=1;html=1;rounded=0;" edge="1" parent="1">
          <mxGeometry width="50" height="50" relative="1" as="geometry">
            <mxPoint x="420" y="420" as="sourcePoint" />
            <mxPoint x="420" y="420" as="targetPoint" />
            <Array as="points">
              <mxPoint x="420" y="420" />
            </Array>
          </mxGeometry>
        </mxCell>
        <mxCell id="ptpNMDShTz1XElcJ-byu-2" value="Time" style="ellipse;whiteSpace=wrap;html=1;" vertex="1" parent="1">
          <mxGeometry x="644" y="160" width="80" height="30" as="geometry" />
        </mxCell>
        <mxCell id="ptpNMDShTz1XElcJ-byu-3" value="" style="endArrow=none;html=1;rounded=0;entryX=0;entryY=1;entryDx=0;entryDy=0;exitX=1;exitY=0.25;exitDx=0;exitDy=0;" edge="1" parent="1" source="Y300xw4K_KnehX-x9vTq-8" target="ptpNMDShTz1XElcJ-byu-2">
          <mxGeometry width="50" height="50" relative="1" as="geometry">
            <mxPoint x="629" y="255" as="sourcePoint" />
            <mxPoint x="666" y="284" as="targetPoint" />
          </mxGeometry>
        </mxCell>
        <mxCell id="ptpNMDShTz1XElcJ-byu-4" value="Registra" style="rhombus;whiteSpace=wrap;html=1;" vertex="1" parent="1">
          <mxGeometry x="377" y="190" width="80" height="80" as="geometry" />
        </mxCell>
        <mxCell id="ptpNMDShTz1XElcJ-byu-5" value="1" style="text;html=1;align=center;verticalAlign=middle;resizable=0;points=[];autosize=1;strokeColor=none;fillColor=none;" vertex="1" parent="1">
          <mxGeometry x="328" y="208" width="30" height="30" as="geometry" />
        </mxCell>
        <mxCell id="ptpNMDShTz1XElcJ-byu-6" value="0..n" style="text;html=1;align=center;verticalAlign=middle;resizable=0;points=[];autosize=1;strokeColor=none;fillColor=none;" vertex="1" parent="1">
          <mxGeometry x="467" y="208" width="40" height="30" as="geometry" />
        </mxCell>
      </root>
    </mxGraphModel>
  </diagram>
</mxfile>
